<?xml version="1.0" encoding="UTF-8"?>
<!DOCTYPE svg PUBLIC "-//W3C//DTD SVG 1.1//EN" "http://www.w3.org/Graphics/SVG/1.1/DTD/svg11.dtd">
<!-- Creator: CorelDRAW -->
<svg xmlns="http://www.w3.org/2000/svg" xml:space="preserve" width="179.99mm" height="219.796mm" version="1.1" style="shape-rendering:geometricPrecision; text-rendering:geometricPrecision; image-rendering:optimizeQuality; fill-rule:evenodd; clip-rule:evenodd"
viewBox="0 0 17999 21979.57"
 xmlns:xlink="http://www.w3.org/1999/xlink"
 xmlns:xodm="http://www.corel.com/coreldraw/odm/2003">
 <defs>
  <style type="text/css">
   <![CDATA[
    .fil5 {fill:#3FEB8A}
    .fil6 {fill:#FFED00;fill-rule:nonzero}
    .fil0 {fill:url(#id0)}
    .fil3 {fill:url(#id1)}
    .fil2 {fill:url(#id2)}
    .fil1 {fill:url(#id3);fill-rule:nonzero}
    .fil4 {fill:url(#id4);fill-rule:nonzero}
   ]]>
  </style>
  <linearGradient id="id0" gradientUnits="userSpaceOnUse" x1="75.66" y1="10989.79" x2="17924" y2="10989.79">
   <stop offset="0" style="stop-opacity:1; stop-color:#FBE13C"/>
   <stop offset="0.239216" style="stop-opacity:1; stop-color:#DFC837"/>
   <stop offset="0.490196" style="stop-opacity:1; stop-color:#635A1F"/>
   <stop offset="1" style="stop-opacity:1; stop-color:#36AD6A"/>
  </linearGradient>
  <linearGradient id="id1" gradientUnits="userSpaceOnUse" x1="9242.29" y1="4445.74" x2="8426.1" y2="2942.36">
   <stop offset="0" style="stop-opacity:1; stop-color:#034E2D"/>
   <stop offset="1" style="stop-opacity:1; stop-color:#006A33"/>
  </linearGradient>
  <linearGradient id="id2" gradientUnits="userSpaceOnUse" x1="8612.29" y1="700.28" x2="9387.37" y2="21279.29">
   <stop offset="0" style="stop-opacity:1; stop-color:#00A147"/>
   <stop offset="0.470588" style="stop-opacity:1; stop-color:#000301"/>
   <stop offset="1" style="stop-opacity:1; stop-color:black"/>
  </linearGradient>
  <linearGradient id="id3" gradientUnits="objectBoundingBox" x1="0%" y1="50%" x2="100%" y2="50%">
   <stop offset="0" style="stop-opacity:1; stop-color:#EAD86C"/>
   <stop offset="0.490196" style="stop-opacity:1; stop-color:#FFE85B"/>
   <stop offset="1" style="stop-opacity:1; stop-color:#6EC486"/>
  </linearGradient>
  <linearGradient id="id4" gradientUnits="userSpaceOnUse" x1="9999.33" y1="2847.45" x2="7917.89" y2="19358.49">
   <stop offset="0" style="stop-opacity:1; stop-color:#CEB677"/>
   <stop offset="0.270588" style="stop-opacity:1; stop-color:#F4D698"/>
   <stop offset="0.529412" style="stop-opacity:1; stop-color:#F9E8C5"/>
   <stop offset="0.760784" style="stop-opacity:1; stop-color:#FAE180"/>
   <stop offset="1" style="stop-opacity:1; stop-color:#A78A2C"/>
  </linearGradient>
 </defs>
 <g id="Слой_x0020_1">
  <metadata id="CorelCorpID_0Corel-Layer"/>
  <g id="_1389977980288">
   <path class="fil0" d="M15059.12 17697.14c414.52,-295.85 838.13,-583.11 1229.29,-909.42 920.22,-767.59 1635.59,-1683.74 1635.59,-3036.51 0,-1840.93 0,-3681.91 0,-5522.84 0,-1945.18 -1463.52,-2976.54 -2864.88,-3945.93l-6059.28 -4191.53 -6142.78 4249.28c-1378.01,953.25 -2781.38,1969.41 -2781.38,3888.18l0 87.39 -0.01 0c0,1782.69 0,3565.37 0,5348.06l0.01 0 0 87.39c0,1390.53 754.95,2320.67 1714.45,3102.64 354.35,288.79 687.89,523.34 1066.93,785.54l6142.78 4249.28 6036.24 -4175.58 23.04 -15.95z"/>
   <path class="fil1" d="M15015.76 17636.21c92.66,-66.14 168.16,-119.5 243.51,-172.74 334.9,-236.65 670.46,-473.79 981.39,-733.17 453.97,-378.67 857.15,-793.53 1146.18,-1279.48 287.3,-483.04 462.16,-1037.82 462.16,-1699.61l0 -5522.84c0,-951.79 -358.44,-1680.47 -888.47,-2289.96 -534.91,-615.1 -1247.11,-1112.46 -1943.89,-1594.45l-6016.8 -4162.14 -6100.3 4219.89c-684.85,473.74 -1375.88,962.99 -1893.08,1569.13 -512.22,600.29 -855.78,1318.61 -855.78,2257.53l0 5522.84c0,680.32 184.52,1247.75 486.28,1740.57 303.6,495.81 726.53,917.92 1200.34,1304.06 177.21,144.43 347.98,274.38 520.99,400.4 171.41,124.86 350.24,249.5 541.25,381.63l6100.3 4219.89 6015.92 -4161.55zm329.65 -50.28c-87.07,61.52 -173.95,122.92 -242.93,172.15 -2044.18,1347.3 -4083.11,2824.74 -6102.64,4221.49l-6185.26 -4278.66c-188.01,-130.05 -365.51,-253.82 -544.19,-383.97 -177.08,-128.98 -350.31,-260.72 -527.43,-405.08 -485.68,-395.81 -920,-829.79 -1233.74,-1342.16 -315.57,-515.37 -508.54,-1108.3 -508.54,-1818.49 0,-1840.93 -1.49,-3681.92 0,-5522.84 0,-979.85 358.14,-1729.02 892.1,-2354.79 528.97,-619.94 1228.65,-1115.43 1921.8,-1594.91l6185.27 -4278.66 6101.75 4220.91c704.56,487.37 1424.84,990.43 1972.01,1619.63 552.06,634.82 925.39,1394.45 925.39,2387.82l0 5522.84c0,690.99 -182.84,1270.7 -483.26,1775.79 -298.69,502.18 -713.34,929.24 -1179.58,1318.14 -318.82,265.96 -655.12,503.62 -990.75,740.79z"/>
   <path class="fil2" d="M14725.73 17328.09c391.71,-279.57 792.01,-551.02 1161.65,-859.38 869.59,-725.36 1545.6,-1591.1 1545.6,-2869.44 0,-1739.64 0,-3479.32 0,-5218.96 0,-1838.16 -1383,-2812.77 -2707.25,-3728.82l-5725.89 -3960.91 -5804.8 4015.48c-1302.19,900.8 -2628.34,1861.05 -2628.34,3674.25l0 82.58 -0.01 0c0,1684.6 0,3369.2 0,5053.8l0.01 0 0 82.58c0,1314.02 713.41,2192.99 1620.12,2931.93 334.85,272.9 650.04,494.55 1008.22,742.32l5804.8 4015.48 5704.12 -3945.84 21.77 -15.07z"/>
   <g>
    <circle class="fil3" cx="8834.19" cy="3694.05" r="855.33"/>
    <path class="fil4" d="M12953.05 8598c-4.76,-128.95 0.96,-466.97 169.86,-699.94 109.98,-151.69 310.38,-279 541.45,-351.8 215.51,-67.89 460.12,-89.23 684.45,-39.26 23.52,5.23 44.98,10.92 64.4,17 12.65,3.96 25.01,8.2 37.11,12.69 -53.91,-120.82 -93.96,-236.61 -116.78,-307.72 -17.4,4.13 -34.89,7.78 -52.44,10.91 -167.37,29.87 -341.35,13.79 -499.14,-56.63 -105.74,-47.18 -203.69,-118.55 -286.95,-216.55 -25.76,-30.33 -48.42,-63.8 -68.29,-99.76 -612.38,231.01 -651.63,820.26 -651.76,822l-3.75 48.7 -45.76 16.34c-126.8,45.28 -332.31,180.87 -347.35,190.84 -358.69,278.05 -738.68,377.3 -871.91,405.25 -56,226.88 -186.27,742.42 -287.27,1049.44 188.51,-89.25 390.02,-176.16 601.92,-255.88 489.63,-184.22 685.74,-287.14 814.39,-354.65 39.51,-20.72 72.93,-38.28 106.51,-53.94 53.14,-24.79 109.23,-48.74 159.22,-69.24 -6.66,-26.55 22.93,-50.86 52.09,-67.8zm-6857.34 10694.75c2.43,0.01 845.36,6.9 1373.49,-151.54 251.88,-75.56 468.74,-199.78 652.51,-364.87 193.67,-173.97 351.22,-393.65 474.89,-649.98 237.68,-492.61 179.96,-2386.86 177.64,-2460.08l-13.52 -210.63c-107.53,-592.19 -381.13,-1425.5 -1077.37,-1756.63 -710.33,-337.82 -1370.25,-183.13 -2053.5,-22.97 -484.73,113.61 -980.88,229.9 -1521.64,183.27 1.83,242.16 -45.29,753.04 -453.02,955.66 -84.77,42.12 -172.03,70.06 -259.13,85.3 -198.53,34.74 -397.48,4.17 -566.03,-73.74 -170.39,-78.75 -310.46,-206.35 -389.06,-364.53 -27.98,-56.3 -48.15,-116.22 -59.11,-178.88 -7.33,-41.88 -11.78,-85.07 -13.43,-129.1 -7.61,-203.51 49.79,-405.33 162.95,-565.89 114.79,-162.86 286.23,-283.53 504.88,-321.79 36.32,-6.35 74.93,-10.41 115.82,-11.93 34.17,-1.28 67.72,-0.67 100.62,1.58 -49.99,-154.82 -109.88,-446.03 -12.51,-786.73 49.79,-174.19 161.77,-307.81 288.95,-408.62 -262.92,39.58 -459,3.61 -711.19,-42.72 -76.06,-13.97 -157.71,-28.97 -257.66,-44.29 -426.27,-65.31 -605.29,23.89 -605.81,24.13l-63.86 -135.36c0.64,-0.3 220.36,-109.27 691.93,-37.01 90.27,13.83 179.33,30.2 262.36,45.45 145.98,26.82 271.93,49.94 403.75,55.31 -45.1,-22.04 -89.06,-46.88 -132.76,-73.75 -142.16,-87.42 -256.5,-224.09 -341.93,-385 -92.56,-174.35 -151.63,-378.25 -175.4,-578.3 -10.74,-90.44 -6.46,-175.67 6.51,-253.39l-383.12 30.69 -11.72 -149.42 433.39 -34.72c42.9,-127.42 119.04,-245.49 157.3,-300.3 -128.66,-86.78 -213.57,-207.56 -265.77,-332.58 -14.42,-34.56 -31.46,-70.54 -48.96,-107.55 -79.52,-168.07 -168.24,-355.55 -115.55,-554.07 -112.19,-38.52 -229.7,-14.7 -230.15,-14.62l-28.12 -147.08c0.68,-0.13 160.43,-60.99 320.01,21.34 28.05,-45.01 64.71,-90.45 111.71,-136.25 183.39,-178.72 410.67,-219 585.14,-216.99 -66.41,-76.17 -117.48,-166.87 -153,-271.62 -8.24,-24.3 -15.39,-49.94 -21.38,-76.64l0 -0.3c-5.95,-26.57 -10.55,-53.8 -13.75,-81.46l-656.21 -452.43 84.96 -123.04 571.01 393.69c8,-70.14 25.62,-139.79 53.99,-205.4 18.8,-43.46 42.21,-85.12 70.53,-123.99l-0.12 -0.09c136.52,-182.9 230.93,-491.84 260.53,-597.29 -69.05,-24.44 -135.45,-55.79 -197.49,-93.02 -170.08,-102.05 -281.13,-256.71 -340.25,-431.48 -64.71,-191.33 -66.81,-407.2 -15.74,-603.34 47.62,-182.9 182.62,-334.48 351.35,-441.96 185.18,-117.94 413.34,-183.75 609.71,-178.93 313.17,7.69 614.61,174.03 695.29,222.01 109.13,-55.5 290.96,-132.91 541.26,-189.07l-72.02 -326.54 145.9 -32.22 72.77 329.95c150.12,-25.47 320.29,-42.29 509.89,-43.42 374.88,-2.24 692.47,137.78 939.8,332.42 288.5,227.06 482.26,530.93 559.71,769.84 129.56,14.49 471.03,75.72 837.75,331.6 421.21,293.89 485.5,498.17 577.78,791.4 9.4,29.89 19.2,60.98 32.74,102.11 29.55,89.72 49.19,162.71 62.01,221.85l1.28 -3.57 32.14 -88.05c63.6,-174.05 124.98,-342.14 141.34,-531.85 -4.26,-60.34 -4.42,-122.66 0.63,-187.7 -19.23,-240.39 -118.21,-522.03 -364.9,-888.67 -562.1,-835.41 -1388.42,-921.86 -1390.8,-922.13l17 -148.82c1.32,0.15 236.38,24.83 546.18,168.81 -30.94,-210.21 -72.35,-295.19 -105.96,-364.14 -50.32,-103.26 -85.9,-176.27 -63.13,-462.63 2.12,-26.67 5.27,-52.32 9.33,-76.99 -180.63,-395.2 -834.7,-551.5 -836.65,-551.98l35.16 -145.32c1.96,0.47 585.74,139.76 858.69,503.96 99.27,-221.85 282.23,-328.32 399,-375.87 -7.69,-48.13 -11.7,-97.49 -11.7,-147.79 0,-256.9 104.15,-489.5 272.49,-657.84 168.34,-168.36 400.96,-272.49 657.84,-272.49 256.9,0 489.5,104.13 657.84,272.49 168.36,168.34 272.49,400.94 272.49,657.84 0,47.54 -3.58,94.23 -10.46,139.86 103.37,46.86 308.47,167.94 418.75,424.64 248.78,-394.69 871.82,-544.31 873.84,-544.8l35.74 145.32c-2.03,0.5 -709.26,170.5 -840.35,604.08l-10.23 -3.09c3.66,21.3 6.79,43.17 9.18,65.79 30.69,290.57 0.8,343.26 -51.78,435.96 -34.31,60.49 -80.77,142.4 -122.65,382.67 335.36,-170.35 601.31,-198.32 602.71,-198.48l17 148.82c-2.37,0.27 -825.5,86.63 -1365.3,921.25 -235.96,364.84 -334.35,647.55 -355.37,889.49 4.62,65.41 3.85,128.07 -1.21,188.67 15.79,212.67 87.24,398.39 162.15,593.01l13.39 34.82c4.8,12.52 9.81,25.03 15.01,37.57 18.54,-64.66 43.8,-150.53 77.89,-262.93 9.88,-32.6 20.15,-68.16 30.04,-102.41 84.87,-293.76 144.08,-498.51 557.86,-792.57 359.12,-255.22 698.34,-316.97 828.67,-331.75 71.65,-238.96 257.57,-542.43 540.01,-769.39 242.67,-194.98 557,-335.25 932.13,-333.01 188.96,1.13 359.02,17.82 509.36,43.12l63.71 -327.6 147.08 28.12 -63.81 328.12c273.02,60.68 466.31,146.4 573.14,202.33l2.44 -12.38 27.69 -17.2c296.38,-184.03 600.78,-241.3 868.11,-205.73 194.13,25.83 368.83,100.59 507.25,211.44 139.87,112.02 242.87,260.94 291.96,433.79 54.49,191.86 42.09,412.13 -60.72,642.55 -57.97,129.93 -144.17,240.87 -247.72,328.83 -79.3,67.37 -168.91,121.36 -263.89,160.17 39.2,122.72 132.78,387.73 257.8,556.48 34.21,43.08 62.21,89.85 84.41,138.87 29.57,65.32 48.6,134.69 58.1,204.57l561.3 -394.09 86.14 122.46 -643.5 451.8c-3.05,33.48 -8.17,66.36 -15.27,98.21 -4.79,21.5 -10.03,41.34 -15.67,59.36 -51.12,163.31 -141.14,292.78 -269.44,386.47 -8.67,6.33 -17.52,12.49 -26.53,18.48 435.4,-50.3 767.23,295.44 768.31,296.55l1.71 1.76c172.86,-105.65 394.48,-99.18 395.22,-99.16l-3.52 149.42c-0.62,-0.01 -202.98,-5.87 -335.37,91.49 33.44,127.36 57.84,340.56 -42.22,586.86 -50.35,123.95 -117.66,227.16 -195.92,310.16 51.51,61.31 140.81,179.22 204.44,326.12l326.23 28.04 -12.3 149.42 -261.35 -22.47c18.04,74.35 26.37,152.81 18.95,232.78 -17.21,185.56 -93.61,375.2 -199.7,541.81 -116.4,182.82 -269.61,339.57 -420.04,433.58 -43.42,27.14 -87.18,52.22 -132.14,74.42 130.55,-0.85 247.09,-23.5 389.87,-51.27 82.74,-16.08 173.86,-33.81 278.22,-49.86 469.66,-72.25 692.09,36.71 692.73,37.01l-63.86 135.36c-0.52,-0.24 -182.01,-89.45 -606.61,-24.13 -104.87,16.13 -192.66,33.21 -272.36,48.7 -262.98,51.14 -443.11,86.12 -765.32,12.89 138.19,105.13 266.67,249.01 326.59,441.09 108.23,347 73.46,638.6 41.33,786.52 8.37,0.09 16.77,0.29 25.22,0.61 33.69,1.26 65.54,4.18 95.51,8.64 229.91,34.24 411.79,157.88 534.07,326.39 120.7,166.32 182.82,376.81 174.95,587.53 -1.34,35.75 -4.49,70.54 -9.48,104.1 -9.87,66.33 -30.21,129.74 -59.36,189.15 -74.99,152.85 -208.16,276.43 -371.41,353.96 -161.16,76.55 -352.3,108.65 -545.63,79.86 -95.02,-14.15 -190.93,-43.19 -284.46,-89.07 -479.16,-235.07 -482.45,-886.85 -475.61,-1048.3 -504.81,34.75 -974.09,-65.28 -1430.81,-162.66 -695.64,-148.32 -1361.31,-290.25 -2057.6,84.21 -662.86,356.47 -884.49,1180.42 -956.95,1762.14 -1.24,23.06 -32.88,621.15 -11.19,1535.17 22.12,932.26 161.83,1250.14 588.66,1775.78 426.83,525.64 1750.81,549.35 1750.81,549.35l-83.3 100.6c0,0 -1071.72,-45.31 -1796.89,-315.78 -725.17,-270.47 -903.82,-1021.41 -951.13,-1214.06 -24.5,122.57 -54.29,226.06 -90.42,300.94 -132.11,273.81 -301.09,509.09 -509.45,696.26 -200.09,179.75 -436.03,314.94 -709.93,397.11 -395.19,118.56 -955.7,147.99 -1238.9,155.18l-177.59 -119.32 0.22 -27.88zm2730.8 -4684.77c0.71,2.55 23.75,83.49 56.19,-1.03l0.01 -0.01c-14.68,-853.93 -41.57,-2432.57 -42.99,-2631.14l-0.01 -0.87 -0.01 -0.87 -0.01 -0.88 -0.36 -30.24c-1.85,-176.92 -4.57,-435.43 -243.12,-835.46 -15.45,-25.91 -30.6,-52.36 -45.45,-79.16 -148.53,-202.17 -305.14,-382.11 -468.69,-539.82 -173.93,-167.72 -355.67,-310.1 -543.8,-427.12 -194.98,-121.29 -433.48,-250.23 -706.35,-379.3 -257.69,-121.89 -545.01,-243.6 -854.16,-358.78l-310.41 -115.47c-407.73,-151.51 -562.55,-209.05 -681.25,-263.77 -124.3,-57.31 -234.7,-159.98 -275.78,-200.77 -99.74,54.08 -241.61,102.91 -387.72,141.36 -226.46,59.6 -469.15,95.88 -578.74,88.09 48.7,68.34 79.01,146.65 117.53,246.23 9.28,24 19.18,49.58 35.84,90.62 21.22,52.29 37.34,113.7 46.66,179.79 19.17,135.7 9.43,292.57 -43.65,431.62 -15.14,39.66 -33.74,77.9 -56.1,113.87 127.9,74.71 370.74,238.57 483.55,460.55 31.25,61.49 58.95,123.02 86.57,184.36 99.49,220.98 198.01,439.76 407.35,525.45 256.18,104.87 473.95,167.14 525.74,181.42 84.92,-4.25 169.95,-0.87 256.08,11.61 144.39,20.92 265,43.75 375.62,70.47 -19.51,-32.56 -38.39,-67.72 -56.75,-105.42 -71.58,-146.95 -136.78,-335.05 -202.43,-558.7 -126.61,-431.37 -287.64,-714.71 -288.1,-715.52l130.08 -73.24c0.49,0.87 170.54,300.12 301.58,746.58 63.18,215.25 125.63,395.66 193.63,535.26 52.36,107.48 106.9,188.8 166.48,240.8 76.22,25.05 152.76,53.1 235.25,84.96 23.69,-406.62 230.85,-1045.73 231.49,-1047.73l142.38 45.7c-0.66,2.04 -221.99,684.9 -226.52,1060.17l36.56 14.67c228.24,91.74 605.54,262.11 932.01,472.92 225.45,145.59 427.97,311.42 544.93,486.5 135.96,203.51 289.69,576.72 438.74,1030.94 92.66,282.36 183.87,596.7 268.11,921.3l0.02 0.06zm264.48 41.81c0,0 39.93,54.44 78.53,-78.3 73.37,-311.6 152.98,-611.36 235.16,-883.42 137.2,-454.21 281.26,-827.5 412.04,-1031.22 114.74,-178.73 317.62,-353.03 543.26,-506.82 305.04,-207.89 653.73,-380.11 877.82,-473.07 -12.39,-380.21 -188.6,-1057.89 -189.13,-1059.93l144.72 -36.92c0.51,1.99 164.98,634.38 191.05,1038.8 55.26,-20.93 107.76,-39.64 158.93,-56.57 73.46,-50.52 150.98,-152.48 224.66,-291.4 79.46,-149.82 152.32,-340.01 209.52,-553.91 121.65,-454.89 335.28,-711.27 335.89,-712.02l116.02 94.92c-0.55,0.68 -194.09,232.84 -307.19,655.78 -60.02,224.46 -137.18,425.37 -221.82,584.95 -28.06,52.91 -57.15,101.52 -86.94,145.24 142.91,-33.68 294.92,-59.5 488.35,-87.64 88.02,-12.8 175.11,-16.04 262.31,-11.28 39.49,-3.68 283.63,-30.01 544.42,-137.92 231.77,-95.9 351.63,-353.59 465.42,-598.27 16.76,-36.05 33.42,-71.86 51.93,-110.26 99.78,-206.96 266.2,-337.14 365.97,-400.89 -59.4,-81.56 -104.19,-180.14 -128.74,-295.13 -32.78,-153.56 -26.03,-397.61 86.58,-610.11 54.71,-103.23 133.8,-199.15 244.5,-274.21 -30.13,5.01 -61.19,9.02 -93.18,12 -266.19,24.8 -541.61,-72.61 -747.14,-145.31 -86.39,-30.55 -159.59,-56.44 -207.42,-64.41 -20.18,-3.36 -38.84,-6.8 -56.1,-10.3 -48.68,18.32 -176.55,67.45 -285.39,118.24 -31.25,14.58 -63.06,31.28 -100.65,51 -132.52,69.54 -334.53,175.56 -830.79,362.27 -316.25,118.98 -609.19,254.4 -869.65,389.5 -260.75,135.26 -488.77,270.11 -675.08,387.91 -191.56,121.13 -393.12,278.74 -585.11,463.37 -174.98,168.29 -341.91,359.13 -485.89,565.33 -106.81,221.22 -173.82,395.61 -214.18,536.56 -40.68,142.04 -54.02,249.21 -54.02,335.96 0,9.48 0.12,25.22 0.34,46.49 6.35,205.98 68.86,1810.94 101,2640.99zm5939.33 -4387.39c-34.31,25.68 -69.9,48.25 -106.41,67.73 -131.78,70.31 -275.14,100.24 -412.93,91.44 -139.06,-8.87 -272.81,-57.05 -383.94,-142.8 -11.2,-8.65 -22.17,-17.68 -32.89,-27.07 -77.7,45.89 -239.8,159.61 -333.45,353.87 -15.94,33.06 -33.28,70.35 -50.75,107.92 -125.81,270.52 -258.32,555.43 -544.52,673.85 -69.3,28.68 -137.49,52.01 -201.56,70.97 232.41,66.12 475.77,170.65 747.73,287.49l-0.09 0.21 0.85 0.11c38.78,16.66 76.09,31.55 112.07,44.78 14.69,4 56.57,16.03 114.5,37.91 144.25,42.14 265.21,54.81 371.65,46.18 154.85,-12.55 282.35,-71.33 408.25,-150.02 132.62,-82.89 268.71,-222.67 373.16,-386.72 94.27,-148.05 161.98,-314.6 176.86,-475.01 23.93,-257.96 -158.14,-505.36 -238.53,-600.84zm168.44 -465.99c120.39,-296.33 30.61,-527.46 7.83,-577.75 -54.59,-52.85 -383.88,-349.35 -771.73,-212.59 -175.87,62.01 -286.7,173.53 -352.69,298.05 -94.13,177.62 -99.85,381.29 -72.52,509.33 32.84,153.83 109.17,270.08 208.79,346.96 86.87,67.03 192.06,104.74 301.92,111.74 111.13,7.09 226.81,-17.09 333.23,-73.86 141.02,-75.23 266.44,-208.08 345.17,-401.88zm-11845.59 -922.6c-47.71,-13.77 -437.57,-115.85 -704.78,144.57 -231.96,226.07 -121.45,459.63 -26.84,659.6 18.5,39.13 36.5,77.14 51.88,113.99 50.14,120.09 136.99,234.87 275.01,302.97 114.24,56.36 264.99,81.81 461.26,54.09 42.23,-5.96 80.59,-16.36 115.3,-30.45 118.95,-48.28 193.71,-142.24 235.19,-250.9 43.63,-114.29 51.45,-244.49 35.45,-357.8 -7.5,-53.19 -20.38,-102.39 -37.28,-144.03 -9.89,-24.37 -23.61,-59.83 -36.44,-92.98 -72.75,-188.07 -110.26,-284.89 -368.75,-399.06zm394.85 1278.2c-46.41,42.98 -101.66,79 -166.76,105.43 -45.32,18.4 -95.58,32 -151.06,39.83 -201.97,28.53 -365.74,7.19 -497.3,-45.55 -60.72,89.32 -217.56,350.15 -185.52,619.81 21.68,182.42 75.23,367.77 159,525.56 73.56,138.55 170.07,255.04 288.03,327.58 128.23,78.86 257.48,137.76 412.75,150.32 93.03,7.52 196.59,-1.12 316.3,-31.28 87.95,-33.13 153.4,-49.7 170.81,-53.88 34.52,-12.89 70.25,-27.31 107.3,-43.41l0.79 -0.21 -0.05 -0.11c297.72,-129.35 560.8,-243.67 813.99,-307.51 -75.52,-26.44 -160.84,-58.19 -250.96,-95.08 -265.37,-108.63 -375.94,-354.19 -487.61,-602.21 -27.39,-60.84 -54.87,-121.87 -83.65,-178.5 -102.7,-202.09 -340.83,-351.98 -446.06,-410.79zm589.27 -4403.61c-88.16,-50.97 -344.97,-185.66 -607.44,-192.11 -168.29,-4.13 -365.08,53.06 -525.91,155.49 -139.17,88.65 -249.64,210.35 -286.91,353.48 -44.02,169.06 -42.45,354.37 12.82,517.8 48.39,143.04 138.3,269.06 275.21,351.2 159.75,95.85 352.03,146.58 537.31,127.89 159.91,-16.14 315.04,-84.71 439.09,-221.82 224.72,-248.36 201.67,-525.56 170.96,-894.81 -5.09,-61.32 -10.41,-125.14 -15.13,-197.12zm151.27 17.25c3.98,55.74 8.71,112.61 13.28,167.57 26.08,313.63 47.1,566.82 -68.8,802.78 571.1,225.1 677.56,714.2 697.19,871.65 153.87,66.46 384.66,211.64 385.39,212.1l3.39 2.15 2.18 1.66c346.48,264.55 647.03,343.86 744.34,363.89 56.64,-52.91 203.36,-195.87 418.94,-447.88 135.65,-158.57 235.43,-348.57 291.39,-547.85 54.98,-195.82 67.41,-400.26 29.67,-592.06 -43.41,-220.57 -230.27,-544.52 -531.85,-781.88 -223.78,-176.11 -510.14,-302.79 -846.64,-300.78 -587.2,3.51 -971.21,161.64 -1138.48,248.65zm-135.19 1100.41c-18.48,24.91 -38.78,49.72 -61.17,74.47 -151.25,167.17 -340.32,250.77 -535.19,270.44 -95.61,9.65 -192.54,3.73 -286.93,-15.36 -18.37,65.09 -59.35,200.49 -119.04,342.27 8.14,-3.1 16.4,-6.07 24.81,-8.92 24.2,-8.2 50.55,-15.56 79.1,-21.95 223.05,-49.98 454.86,-32.88 658.66,30.74 217.98,68.05 405.93,190.19 519.61,341.56 207.23,275.92 185.24,707.31 181.93,757.27 34.24,34.18 129.33,123.45 233.64,171.54 116.74,53.82 269.19,110.48 670.69,259.67l310.41 115.47c165.88,61.8 325.12,125.23 476.63,189.36 -110.05,-323.24 -241.38,-875.88 -279.76,-1040.76 -121.04,-26.55 -438.83,-117.08 -793.9,-387.48 -30,-18.75 -272.42,-169.16 -397.83,-213.53l-47.93 -16.95 -1.88 -51.02c-0.06,-1.67 -14.46,-568.44 -631.85,-796.82zm5365.63 -2883.76c-45.89,140.98 -124.55,267.19 -226.97,369.6 -148.57,148.57 -347.19,247.13 -568.39,268.23l10.34 895.75c27.54,62.86 152.67,342.12 296.6,566.18 205.23,-299.83 445.43,-504.61 670.16,-644.14 50.06,-358.93 113.34,-470.52 158.39,-549.92 37.45,-66.02 58.74,-103.56 33.04,-346.9 -36.49,-345.51 -256.82,-500.35 -373.17,-558.8zm-957.71 639.27c-227.82,-17.66 -432.68,-117.41 -584.94,-269.67 -100.94,-100.94 -178.79,-225 -224.95,-363.53 -111.2,49.4 -280.95,163 -336.38,407.71 2.73,7.35 5.35,14.77 7.81,22.26l-13.22 4.3c-4.54,24.47 -8.01,50.12 -10.16,77.13 -19.54,245.73 8.63,303.54 48.47,385.29 43.28,88.78 98.09,201.27 132.49,512.66 246.66,139.34 520.1,354.01 754.27,683.59 132.08,-223.12 229.54,-501.22 249.71,-560.72l-23.1 -899.02zm624.68 -1479.29c-141.2,-141.21 -336.29,-228.55 -551.78,-228.55 -215.48,0 -410.58,87.34 -551.78,228.55 -141.2,141.2 -228.55,336.29 -228.55,551.78 0,215.48 87.35,410.58 228.55,551.78 141.2,141.2 336.3,228.55 551.78,228.55 215.49,0 410.58,-87.35 551.78,-228.55 141.21,-141.2 228.55,-336.3 228.55,-551.78 0,-215.49 -87.34,-410.58 -228.55,-551.78zm3939.25 2655.6c-122.72,-71.33 -533.98,-276.88 -1204.26,-280.88 -336.37,-2.01 -619.04,124.43 -837.79,300.19 -294.87,236.94 -473,560.42 -510.6,780.71 -33.73,197.58 -23.35,407.57 29.91,608.11 51.41,193.62 142.85,378.28 273.12,534.14 210.5,251.86 343.19,403.34 397.29,464.35 116.85,-23.94 476.22,-114.89 816.99,-380.36l4.69 -3.51c0.6,-0.4 191,-127.36 336.86,-190.51 24.97,-159.28 149.95,-675.87 735.83,-900.29 -104.95,-312.07 -70.5,-722.14 -42.04,-931.95zm904.7 -243.28c-226.92,-30.19 -485.85,16.67 -741.6,167.65 -27.45,157.37 -130.92,851.31 120.94,1147.78 68.16,80.24 147.89,138.46 233.63,176.71 128.97,57.55 272.82,70.4 412.42,45.49 140.58,-25.09 276.32,-88.61 388.04,-183.52 87.09,-73.98 159.44,-166.95 207.88,-275.51 87.42,-195.93 98.52,-381.26 53.1,-541.19 -40.29,-141.87 -125.53,-264.67 -241.58,-357.61 -117.52,-94.11 -266.56,-157.68 -432.83,-179.8zm-9000.71 7059.34c941.85,-82.11 2803.89,517.01 3224.39,1453.43 -131.16,-472.62 -132.83,-841.44 -458.2,-1328.49 -104.12,-155.85 -291.27,-307.92 -501.57,-443.72 -317.33,-204.91 -684.59,-370.72 -906.81,-460.04 -150.42,-60.46 -274.61,-109.26 -397.02,-149.98l-6.2 9.86c-10.97,-6.9 -21.75,-14.38 -32.34,-22.42 -16.43,-5.24 -32.9,-10.36 -49.43,-15.34 -151.27,-45.57 -309.06,-80.21 -519.72,-110.74 -408.94,-59.26 -811.94,115.84 -1320.25,336.7l-0.79 0.21 0.05 0.11c-108.51,47.15 -207.44,81.41 -298.67,104.64 -194.02,74.05 -495.59,232.62 -578.34,522.13 -108.08,378.16 -0.65,682.89 37.16,772.04 396.36,96.31 661.03,403.38 661.96,404.45l15.59 17.77 0.38 3.5c525.77,49.6 1016.85,-65.48 1496.45,-177.9 709.04,-166.21 1393.86,-326.74 2151.34,33.51 69.42,33.02 134.91,70.56 196.73,111.93 -29.37,-25.27 -59.32,-49.71 -90.43,-72.47 -1319.82,-965.57 -2607.64,-840.69 -2611.38,-840.36l-12.9 -148.82zm1932.82 -5988.79c30.23,198.84 14.05,407.24 -42.04,606.99 -37.84,134.75 -93.94,265.74 -166.25,387.33 73.52,119.26 233.88,261.89 418.61,371.57 175.2,104.03 368.99,176.12 526.03,166.8 279.99,-16.62 520.53,-73.6 617.3,-99.22 -3.46,-37.1 -20,-122.96 -83.83,-316.79 -10.03,-30.47 -21.88,-68.07 -33.32,-104.45 -83.29,-264.64 -141.32,-449.01 -520.36,-713.48 -299.75,-209.15 -576.24,-276.9 -716.14,-298.75zm-297.27 1128.06c-21.23,28.63 -43.45,56.54 -66.62,83.62 -213.44,249.51 -363.65,396.93 -426.87,456.32 42.44,182.84 214.98,911.24 326.21,1162.48 67.94,30.32 134.07,60.72 198.28,91.09 278.59,131.78 522.25,263.52 721.59,387.52 196.68,122.34 386.65,271.16 568.42,446.44 40.88,39.42 81.35,80.19 121.39,122.32 -110.15,-278.42 -174.37,-500.72 -174.68,-501.81l-1.58 -5.4 -0.76 -6.02c-109.15,-855.35 135.63,-1325.73 339.92,-1718.29 9.53,-18.31 18.96,-36.44 28.26,-54.42 -123.97,30.11 -343.79,75.52 -591.16,90.2 -189.32,11.23 -413.18,-69.86 -610.99,-187.32 -176.79,-104.97 -335.48,-240.9 -431.41,-366.73zm1812.32 3194.69c6.35,8.67 12.67,17.38 18.99,26.13l-3.13 2.25c10.38,18.37 20.9,36.54 31.57,54.44 104.7,175.58 167.59,326.38 205.51,456.52 45.04,-134.71 110.56,-294.18 204.1,-485.84 215.43,-441.35 365.97,-991.42 381.74,-1050.04 81.1,-814.02 -148.09,-1247.58 -343.02,-1616.23 -21.1,-39.91 -41.82,-79.09 -61.8,-118.07l-22.77 -3.65 6.74 -27.91c-34.81,-69.24 -66.99,-138.28 -94.55,-210.11l-13.39 -34.82c-36.19,-94.02 -71.62,-186.11 -101.31,-279.72 -23.09,71.93 -49.11,143.15 -75.48,215.31 -5.92,16.21 -11.37,31.09 -31.54,87.47 -45.12,126.11 -108.18,247.3 -175.68,376.99 -194.14,373.07 -426.65,819.95 -325.4,1624.51 17.08,57.88 170.22,566.67 399.42,982.77zm-51.19 -4730.25c124.7,195.89 208.98,368.78 262.8,525 52.75,-156.12 134.3,-328.48 253.4,-523.05 -108.31,-157.97 -209.23,-353.9 -274.89,-490.62 -54.06,137.17 -139.12,331.23 -241.31,488.67zm-4670.93 7550.15c-72.69,-76.64 -386.6,-379.33 -797.62,-363.96 -31.92,1.19 -63.75,4.65 -95.32,10.17 -176.73,30.93 -315.34,128.52 -408.2,260.27 -94.49,134.07 -142.39,303.28 -135.99,474.47 1.32,35.25 5.19,71.56 11.67,108.6 8.53,48.74 24.1,95.11 45.63,138.44 62.99,126.77 177.39,230.01 317.58,294.81 142.02,65.64 309.85,91.37 477.55,62.02 73.85,-12.92 147.51,-36.45 218.69,-71.82 399.22,-198.39 375.83,-787.12 366.01,-913zm-762.05 -5935.56c-2.51,3.46 -5.01,6.9 -7.54,10.29l-0.11 -0.08c-21.44,29.41 -39.13,60.89 -53.32,93.7 -51.46,119.01 -58.32,255.91 -31.26,376.95 4.66,20.53 10.45,41.09 17.34,61.41 44.96,132.59 119.73,236.94 223.75,311.47 105.45,75.57 241.89,121.89 408.76,137.39 90.99,8.45 317.22,-26.39 533.97,-83.44 154,-40.53 299.92,-91.42 382.61,-144.3 3.45,-103.9 0.17,-422.15 -153.44,-626.68 -94.72,-126.12 -255.59,-229.23 -444.61,-288.24 -180.79,-56.44 -385.66,-71.77 -581.9,-27.8 -21.13,4.73 -42.26,10.73 -63.28,17.85 -101.2,34.31 -177.08,91.61 -230.97,161.48zm7054.78 5713.81c730.75,-376.25 1411.68,-231.08 2122.72,-79.48 479.03,102.13 972.2,207.29 1497.11,150.11 115.46,-108.71 353,-295.38 662.82,-342.68 28.3,-104.91 84.08,-392.92 -28.27,-753.14 -97.85,-313.71 -423.06,-478.44 -601.4,-547.11 -76.73,-22.22 -158.9,-51.86 -247.51,-89.93l0.09 -0.21 -0.85 -0.11c-514.43,-221.01 -922.26,-396.23 -1329.46,-337 -211.34,30.74 -371.63,58.57 -524.77,97.33 -151.92,38.45 -297.85,88.1 -481.53,162.71 -216.04,87.76 -567.08,259.12 -872.3,467.13 -211,143.81 -399.04,304.19 -501.66,464.04 -122.64,191.04 -260.83,551.32 -394.46,993.72 -46.9,155.26 -74.77,323.3 -114.18,495.67 -32.16,140.65 -37.76,150.18 84.33,-55.92 178.2,-300.82 314.74,-508.28 572.11,-696.57 1365.51,-999 2708.86,-868.82 2712.76,-868.48l-12.9 148.82c-3.68,-0.32 -1247.22,-120.84 -2542.65,791.1zm-953.46 -5301.51l11.03 20.87c205.1,387.87 446.39,844.2 358.76,1707.39l-0.72 7.01 -1.33 5.01c-0.31,1.17 -73.72,279.02 -193.98,607.18 56.11,-60.66 113.61,-119.2 172.01,-175.36 199.26,-191.62 409.14,-355.63 609.15,-482.11 189.63,-119.9 421.49,-257.04 686.2,-394.35 29.74,-15.43 59.89,-30.86 90.46,-46.27 99.33,-238.13 272.75,-925.6 337.39,-1187.94 -54.45,-61.31 -192.42,-218.42 -402.45,-469.72 -29.27,-35.03 -56.78,-71.35 -82.51,-108.79 -88,133.35 -235.52,282.12 -404.24,394.6l-0.29 0c-174.55,116.36 -374.38,196.21 -560.12,185.2 -241.32,-14.3 -479.43,-43.55 -619.36,-62.72zm1495.84 -662.48c-57.15,-107.42 -101.33,-221.25 -132.32,-337.97 -54.08,-203.65 -68.03,-416.34 -40.79,-619.26 -138.52,21.51 -414.11,88.84 -709.52,298.78 -371.76,264.2 -424.85,448.07 -501.02,712l0 0.29c-9.24,32.02 -18.81,65.16 -30.64,104.17 -53.45,176.23 -84.77,286.09 -102.46,350.6 127.15,18.05 385.32,51.54 649.05,67.17 149.83,8.88 318.03,-60.17 468.52,-160.45l-0.09 -0.13c182.69,-121.8 335.53,-286.48 399.27,-415.2zm3916.23 5830.81c-409.33,-15.3 -714.16,284.74 -786.12,362.56 -6.52,127.45 -13.79,715.71 391.21,914.4 78.47,38.49 159.62,62.97 240.52,75.01 163.41,24.34 324.56,-2.6 460.09,-66.98 133.44,-63.37 241.45,-162.66 301.09,-284.22 22.12,-45.09 37.64,-93.75 45.3,-145.21 4.48,-30.15 7.25,-59.44 8.3,-87.7 6.64,-177.62 -45.49,-354.74 -146.81,-494.35 -99.74,-137.45 -247.74,-238.24 -434.47,-266.05 -26.62,-3.96 -53.03,-6.49 -79.11,-7.46zm-1462.13 -5426.9c-162.79,224.53 -144.7,577.55 -139.98,640.77 16.27,-10.88 37.98,-16.75 66.9,-11.93 61.07,10.18 139.75,38.01 232.62,70.85 192.62,68.13 450.74,159.42 683.86,137.71 166.57,-15.51 301.59,-61.63 404.53,-136.8 101.31,-73.98 172.95,-177.94 214.38,-310.31 5.19,-16.58 9.45,-32.31 12.73,-47.04 27.49,-123.38 18.62,-265.5 -37.39,-389.21 -54.63,-120.64 -155.48,-223.68 -313.17,-273.04 -17.98,-5.63 -35.38,-10.35 -52.08,-14.06 -197.31,-43.95 -414.72,-24.47 -607.69,36.32 -201.36,63.44 -373.48,170.91 -464.71,296.74z"/>
    <path class="fil5" d="M6547.84 3433.01c162.18,0 293.65,131.47 293.65,293.65 0,162.18 -131.47,293.65 -293.65,293.65 -162.18,0 -293.65,-131.47 -293.65,-293.65 0,-162.18 131.47,-293.65 293.65,-293.65zm-4388.86 9303.22c137.46,0 248.89,111.43 248.89,248.89 0,137.46 -111.43,248.89 -248.89,248.89 -137.46,0 -248.89,-111.43 -248.89,-248.89 0,-137.46 111.43,-248.89 248.89,-248.89zm-332.17 -1089.61c162.18,0 293.65,131.47 293.65,293.65 0,162.18 -131.47,293.65 -293.65,293.65 -162.18,0 -293.65,-131.47 -293.65,-293.65 0,-162.18 131.47,-293.65 293.65,-293.65zm3222.88 738.44c162.18,0 293.65,131.47 293.65,293.65 0,162.18 -131.47,293.65 -293.65,293.65 -162.18,0 -293.65,-131.47 -293.65,-293.65 0,-162.18 131.47,-293.65 293.65,-293.65zm1746.66 -2227.02c162.18,0 293.65,131.47 293.65,293.65 0,162.18 -131.47,293.65 -293.65,293.65 -162.18,0 -293.65,-131.47 -293.65,-293.65 0,-162.18 131.47,-293.65 293.65,-293.65zm-1343.06 -544.74c162.18,0 293.65,131.47 293.65,293.65 0,162.18 -131.47,293.65 -293.65,293.65 -162.18,0 -293.65,-131.47 -293.65,-293.65 0,-162.18 131.47,-293.65 293.65,-293.65zm-3432.33 645.38c137.46,0 248.89,111.43 248.89,248.89 0,137.46 -111.43,248.89 -248.89,248.89 -137.46,0 -248.89,-111.43 -248.89,-248.89 0,-137.46 111.43,-248.89 248.89,-248.89zm-113.18 -1476.58c162.18,0 293.65,131.47 293.65,293.65 0,162.18 -131.47,293.65 -293.65,293.65 -162.18,0 -293.65,-131.47 -293.65,-293.65 0,-162.18 131.47,-293.65 293.65,-293.65zm295.16 -1361.16c162.18,0 293.65,131.47 293.65,293.65 0,162.18 -131.47,293.65 -293.65,293.65 -162.18,0 -293.65,-131.47 -293.65,-293.65 0,-162.18 131.47,-293.65 293.65,-293.65zm2789.88 -2806.63c162.18,0 293.65,131.47 293.65,293.65 0,162.18 -131.47,293.65 -293.65,293.65 -162.18,0 -293.65,-131.47 -293.65,-293.65 0,-162.18 131.47,-293.65 293.65,-293.65zm1852.02 300.32c162.18,0 293.65,131.47 293.65,293.65 0,162.18 -131.47,293.65 -293.65,293.65 -162.18,0 -293.65,-131.47 -293.65,-293.65 0,-162.18 131.47,-293.65 293.65,-293.65z"/>
    <path class="fil5" d="M11240.9 3433.01c-162.18,0 -293.65,131.47 -293.65,293.65 0,162.18 131.47,293.65 293.65,293.65 162.18,0 293.65,-131.47 293.65,-293.65 0,-162.18 -131.47,-293.65 -293.65,-293.65zm4453.56 9327.48c-137.46,0 -248.89,111.43 -248.89,248.89 0,137.46 111.43,248.89 248.89,248.89 137.46,0 248.89,-111.43 248.89,-248.89 0,-137.46 -111.43,-248.89 -248.89,-248.89zm477.73 -1101.74c-162.18,0 -293.65,131.47 -293.65,293.65 0,162.18 131.47,293.65 293.65,293.65 162.18,0 293.65,-131.47 293.65,-293.65 0,-162.18 -131.47,-293.65 -293.65,-293.65zm-3232.28 726.31c-162.18,0 -293.65,131.47 -293.65,293.65 0,162.18 131.47,293.65 293.65,293.65 162.18,0 293.65,-131.47 293.65,-293.65 0,-162.18 -131.47,-293.65 -293.65,-293.65zm-1888.8 -2240.06c-162.18,0 -293.65,131.47 -293.65,293.65 0,162.18 131.47,293.65 293.65,293.65 162.18,0 293.65,-131.47 293.65,-293.65 0,-162.18 -131.47,-293.65 -293.65,-293.65zm1460.51 -518.65c-162.18,0 -293.65,131.47 -293.65,293.65 0,162.18 131.47,293.65 293.65,293.65 162.18,0 293.65,-131.47 293.65,-293.65 0,-162.18 -131.47,-293.65 -293.65,-293.65zm3324.73 626.61c-137.46,0 -248.89,111.43 -248.89,248.89 0,137.46 111.43,248.89 248.89,248.89 137.46,0 248.89,-111.43 248.89,-248.89 0,-137.46 -111.43,-248.89 -248.89,-248.89zm44.61 -1470.86c-162.18,0 -293.65,131.47 -293.65,293.65 0,162.18 131.47,293.65 293.65,293.65 162.18,0 293.65,-131.47 293.65,-293.65 0,-162.18 -131.47,-293.65 -293.65,-293.65zm-230.57 -1352.74c-162.18,0 -293.65,131.47 -293.65,293.65 0,162.18 131.47,293.65 293.65,293.65 162.18,0 293.65,-131.47 293.65,-293.65 0,-162.18 -131.47,-293.65 -293.65,-293.65zm-2854.47 -2815.05c-162.18,0 -293.65,131.47 -293.65,293.65 0,162.18 131.47,293.65 293.65,293.65 162.18,0 293.65,-131.47 293.65,-293.65 0,-162.18 -131.47,-293.65 -293.65,-293.65zm-1914.31 331.47c-162.18,0 -293.65,131.47 -293.65,293.65 0,162.18 131.47,293.65 293.65,293.65 162.18,0 293.65,-131.47 293.65,-293.65 0,-162.18 -131.47,-293.65 -293.65,-293.65z"/>
   </g>
   <path class="fil6" d="M9358.02 15239.94l-38.01 -24.35c0,0 -125.76,614.74 -160.68,1564.81 -34.92,950.07 62.57,1407.14 540.83,1987.51 255.78,310.4 812.8,496.24 1275.71,602.02 376.66,45.25 599.87,50.64 599.87,50.64l135.35 -98.01c0,0 -1381.97,-26.57 -1808.8,-552.21 -426.83,-525.64 -566.54,-843.52 -588.66,-1775.78 -21.69,-914.02 9.95,-1512.11 11.19,-1535.17 8.73,-70.05 19.64,-143.62 33.2,-219.46zm-648.82 -28.2l48.24 -22.51c0,0 118.75,1117.72 125.74,1627.67 5.18,378.26 -28.08,814.12 -65.55,1093.87 -23.69,113.71 -52.15,209.92 -86.27,280.63 -132.11,273.81 -301.09,509.09 -509.45,696.26 -200.09,179.75 -436.03,314.94 -709.93,397.11 -381.33,114.4 -916.58,147.26 -1208.13,154.34 -76.64,1.86 -131.05,-69.12 -208.43,-109.03l0.29 -37.33c2.43,0.01 845.36,6.9 1373.49,-151.54 251.88,-75.56 468.74,-199.78 652.51,-364.87 193.67,-173.97 351.22,-393.65 474.89,-649.98 237.68,-492.61 179.96,-2386.86 177.64,-2460.08l-13.52 -210.63c-14.11,-77.7 -31.11,-159.59 -51.52,-243.91z"/>
   <path class="fil1" d="M14682.37 17267.16c88.15,-62.92 159.27,-113.19 230.14,-163.26 316.44,-223.61 633.51,-447.67 927.12,-692.61 428.65,-357.56 809.32,-749.25 1082.2,-1208.02 271.13,-455.87 436.15,-979.43 436.15,-1604l0 -5218.96c0,-898.29 -338.31,-1586.01 -838.57,-2161.27 -505.14,-580.86 -1177.93,-1050.71 -1836.16,-1506.03l-5683.41 -3931.52 -5762.32 3986.09c-646.94,447.52 -1299.72,909.69 -1788.13,1482.08 -483.43,566.58 -807.69,1244.52 -807.69,2130.65l0 5218.96c0,642.07 174.13,1177.59 458.91,1642.66 286.61,468.07 685.97,866.64 1133.38,1231.26 167.45,136.48 328.75,259.24 492.14,378.24 161.8,117.85 330.81,235.66 511.39,360.57l5762.32 3986.09 5682.53 -3930.93zm316.28 -40.8c-82.61,58.37 -164.94,116.55 -229.56,162.67 -1932.38,1273.62 -3860.3,2670.3 -5769.24,3990.87l-5847.29 -4044.86c-177.58,-122.83 -345.28,-239.77 -514.33,-362.91 -167.45,-121.96 -331.21,-246.51 -498.58,-382.92 -459.29,-374.3 -870.03,-784.73 -1166.78,-1269.36 -298.59,-487.63 -481.17,-1048.64 -481.17,-1720.58 0,-1739.61 -2.29,-3479.37 0,-5218.96 0,-927.06 338.84,-1635.86 844.01,-2227.91 500.19,-586.2 1161.6,-1054.59 1816.85,-1507.86l5847.29 -4044.86 5768.36 3990.29c666,460.7 1346.87,936.23 1864.28,1531.21 522.28,600.58 875.49,1319.27 875.49,2259.13l0 5218.96c0,653.77 -173,1202.27 -457.25,1680.18 -282.53,475 -674.68,878.89 -1115.6,1246.68 -301.49,251.51 -619.3,476.1 -936.48,700.23z"/>
  </g>
 </g>
</svg>
